<svg width="514" height="763" viewBox="0 0 514 763" fill="none" xmlns="http://www.w3.org/2000/svg">
<g clip-path="url(#clip0_350_542)">
<path d="M217.873 760.015C-25.4087 760.015 -222.627 757.65 -222.627 754.739C-222.627 751.828 -25.4087 749.463 217.873 749.463C461.154 749.463 658.373 751.828 658.373 754.739C658.373 757.65 461.154 760.015 217.873 760.015Z" fill="#E4EFF7"/>
<path fill-rule="evenodd" clip-rule="evenodd" d="M433.933 644.349L410.853 623.425L418.87 602.261L468.268 638.52L428.253 707.57C428.253 707.57 426.968 690.411 429.059 671.403C430.505 658.271 433.933 644.349 433.933 644.349ZM213.165 690.634L218.436 673.836L240.754 675.001L222.179 721.135L150.83 680.271C172.003 673.935 213.165 690.634 213.165 690.634Z" fill="#001833"/>
<path fill-rule="evenodd" clip-rule="evenodd" d="M416.671 628.758L419.208 602.241L447.639 623.512L433.934 644.35L416.671 628.758ZM217.508 676.674L239.573 678.639L231.427 698.164L213.165 690.634L217.508 676.674Z" fill="#FFCCD7"/>
<path d="M329.626 427.648L357.166 332.877L283.723 333.357L244.136 333.357C244.061 356.422 246.807 394.412 261.341 437.671L215.196 652.708C214.622 655.408 215.593 658.104 217.562 659.849L210.55 684.482L239.21 692.737L246.036 669.783L246.215 669.841C250.279 671.169 254.654 668.938 255.905 664.908L301.497 518.203C306.638 525.702 312.24 533.187 318.33 540.619C356.884 587.675 380.913 613.053 393.271 625.262C397.683 629.628 404.546 629.841 409.201 626.274L426.824 640.632L444.322 616.817L426.906 602.627C429.697 598.199 429.238 592.441 425.67 588.511C407.913 568.907 357.938 509.039 329.626 427.648Z" fill="#09074A"/>
<mask id="mask0_350_542" style="mask-type:luminance" maskUnits="userSpaceOnUse" x="210" y="333" width="235" height="360">
<path d="M329.626 427.648L358.932 333.357H283.723L244.136 333.357C244.061 356.422 246.807 394.412 261.341 437.671L215.196 652.708C214.622 655.408 215.593 658.104 217.562 659.849L210.55 684.482L239.21 692.737L246.036 669.783L246.215 669.841C250.279 671.169 254.654 668.938 255.905 664.908L301.497 518.203C306.638 525.702 312.24 533.187 318.33 540.619C356.884 587.675 380.913 613.053 393.271 625.262C397.683 629.628 404.546 629.841 409.201 626.274L426.824 640.632L444.322 616.817L426.906 602.627C429.697 598.199 429.238 592.441 425.67 588.511C407.913 568.907 357.938 509.039 329.626 427.649L329.626 427.648Z" fill="white"/>
</mask>
<g mask="url(#mask0_350_542)">
</g>
<path opacity="0.0987491" fill-rule="evenodd" clip-rule="evenodd" d="M246.036 669.783L246.215 669.841C250.279 671.169 254.654 668.938 255.905 664.908L301.497 518.202L329.626 427.649L356.551 333.357H283.723L261.342 437.671L215.196 652.708C214.622 655.408 215.593 658.104 217.562 659.849L210.55 684.482L239.21 692.737L246.036 669.783Z" fill="white"/>
<path d="M230.664 664.08L242.735 668.319L291.17 502.167L321.051 399.666L340.378 333.358H315.88L311.574 350.08L278.386 478.87L230.664 664.08Z" fill="#EFEFEF"/>
<path fill-rule="evenodd" clip-rule="evenodd" d="M176.361 249.059C173.435 244.956 170.718 241.145 168.263 237.893C167.931 237.812 167.579 237.725 167.208 237.635C160.543 236.007 147.97 232.935 144.491 229.402C139.329 224.16 132.94 196.609 135.646 194.233C135.661 194.222 135.736 194.163 135.863 194.062C137.424 192.822 146.862 185.327 150.212 186.01C152.465 184.997 154.002 184.321 154.002 184.321L158.684 202.884C159.3 203.415 159.741 203.919 159.943 204.379C160.191 204.947 159.956 205.356 159.38 205.644L160.752 211.081C160.759 211.096 160.765 211.11 160.772 211.125C160.839 211.278 160.871 211.42 160.87 211.551L161.463 213.899L164.854 186.036C164.854 186.036 181.103 202.481 184.785 207.819C186.948 210.955 188.46 219.85 187.375 226.655L219.325 263.378L234.973 219.556L269.796 240.06C269.796 240.06 248.459 291.722 230.564 298.996C211.964 298.996 191.411 270.169 176.361 249.059ZM377.087 367.735L381.601 363.729L380.516 295.544L360.744 259.901L391.853 240.06C391.853 240.06 409.522 276.688 410.264 293.187C410.876 306.79 405.882 351.1 404.109 366.238C404.688 367.481 405.207 368.691 405.593 369.744C408.175 376.781 408.456 379.735 408.891 384.304C409 385.451 409.119 386.7 409.286 388.141C409.978 394.083 410.025 400.058 407.677 408.01C406.167 413.12 404.555 417.463 403.716 417.28C401.602 416.82 401.521 414.215 401.521 414.215L402.518 409.377L402.97 404.654C402.97 404.654 395.46 425.568 394.824 425.453C392.574 425.045 392.216 421.379 392.216 421.379C392.216 421.379 389.863 428.598 388.679 428.337C385.666 427.671 385.952 424.328 385.952 424.328C385.952 424.328 385.001 425.127 384.27 424.925C381.542 424.17 381.623 419.537 381.671 416.82C381.675 416.601 381.679 416.395 381.68 416.204C381.68 416.204 382.889 407.654 382.642 405.018C382.461 403.088 382.303 401.37 382.161 399.837C381.226 389.693 381.039 387.66 380.102 386.18C378.237 387.397 377.546 389.482 376.813 391.696C376.28 393.305 375.724 394.983 374.678 396.444C371.496 400.891 362.619 405.091 367.582 394.904C370.337 389.248 371.023 385.768 371.659 382.537C372.032 380.643 372.388 378.834 373.135 376.722C375.156 371.008 377.087 367.735 377.087 367.735Z" fill="#FFCCD7"/>
<path fill-rule="evenodd" clip-rule="evenodd" d="M241.979 333.231H357.064L358.993 263.922L393.001 239.381C393.001 239.381 378.596 216.204 348.86 189.404C334.25 182.643 331.334 182.405 325.406 181.921C324.56 181.851 323.652 181.777 322.641 181.678L321.45 181.678H320.259L316.688 181.678L309.545 181.678L301.211 181.678L296.449 181.678L288.115 181.678L282.162 184.059L277.4 186.441H275.019L273.487 186.731C257.59 191.013 242.567 199.839 233.784 215.492C233.076 216.753 232.429 217.967 231.84 219.137L231.716 219.113L231.332 220.163C229.209 224.529 227.905 228.251 227.214 231.422L219.945 251.303L237.709 262.056L241.979 333.231Z" fill="#5348C7"/>
<path opacity="0.200521" d="M358.995 263.919L349.764 270.099L327.576 244.609" stroke="#0C092A" stroke-width="5"/>
<path d="M148.256 218.861L149.863 226.643H175.901L163.619 164.687H137.581C138.256 168.092 139.846 176.111 142.35 188.744L147.47 186.402L149.065 185.966L150.32 186.036L150.864 186.402V187.908L145.298 195.805L149.556 197.636L156.107 201.026L158 202.319L158.733 202.989L159.332 203.518L159.713 203.973L159.943 204.379L160.041 204.907L159.943 205.141L159.829 205.32L159.663 205.483L157.516 206.231L152.618 204.907H147.777L154.238 206.231L158.496 208.744L159.943 210.09L160.76 211.079V211.983L159.332 212.617L150.32 211.597L153.304 213.198L155.281 214.408L157.094 215.331L158.496 217.115V217.996L158 218.513L156.741 219.174H154.822H150.955L148.256 218.861Z" fill="#5E93D1"/>
<path fill-rule="evenodd" clip-rule="evenodd" d="M175.904 226.643H180.213L167.931 164.687H163.623L175.904 226.643Z" fill="#020101"/>
<path fill-rule="evenodd" clip-rule="evenodd" d="M159.139 171.881C159.499 173.69 160.566 175.009 161.522 174.824C162.477 174.64 162.961 173.024 162.601 171.214C162.241 169.404 161.174 168.086 160.218 168.27C159.262 168.455 158.779 170.071 159.139 171.881" fill="#020101"/>
<path d="M291.401 203.797C292.075 203.799 292.748 203.764 293.416 203.693C297.859 203.231 301.909 201.248 304.676 198.181C307.444 195.114 308.701 191.213 308.173 187.336L300.182 128.677C299.652 124.8 297.379 121.265 293.863 118.85C292.122 117.654 290.128 116.77 287.996 116.247C285.862 115.723 283.633 115.572 281.432 115.801C279.233 116.03 277.106 116.635 275.174 117.581C273.242 118.527 271.542 119.796 270.172 121.315C268.802 122.835 267.788 124.575 267.189 126.436C266.589 128.298 266.416 130.244 266.678 132.164L274.669 190.823C275.159 194.397 277.131 197.69 280.214 200.08C283.297 202.471 287.277 203.793 291.401 203.797V203.797Z" fill="#FFCCD7"/>
<path d="M275.639 176.018L271.879 176.437C267.506 176.931 263.078 176.454 258.91 175.041C254.742 173.628 250.937 171.314 247.765 168.263C244.593 165.213 242.133 161.501 240.559 157.391C238.985 153.281 238.336 148.875 238.658 144.486L240.254 122.744C240.77 115.722 243.743 109.106 248.652 104.058C253.561 99.0099 260.092 95.8526 267.096 95.141V95.141C274.999 94.3395 282.896 96.7097 289.051 101.731C295.205 106.751 299.113 114.011 299.915 121.913L302.08 143.231C302.877 151.077 300.548 158.919 295.597 165.058C290.647 171.196 283.475 175.134 275.639 176.018Z" fill="#FFCCD7"/>
<path d="M293.06 152.908L293.056 152.905C287.876 149.718 286.26 142.936 289.447 137.756L292.721 132.436C295.907 127.256 302.689 125.64 307.869 128.827L307.873 128.829C313.053 132.016 314.668 138.798 311.482 143.977L308.208 149.299C305.021 154.478 298.24 156.094 293.06 152.908Z" fill="#FFCCD7"/>
<path d="M306.629 137.432L297.802 146.763" stroke="#001833" stroke-linecap="square"/>
<path d="M254.14 125.506L253.519 142.979L259.734 143.231" stroke="#001833" stroke-linecap="square"/>
<path d="M272.653 148.657C273.167 149.607 273.488 150.649 273.6 151.723C273.711 152.797 273.61 153.882 273.301 154.917C272.993 155.952 272.484 156.916 271.803 157.754C271.122 158.592 270.283 159.288 269.334 159.802C268.384 160.315 267.342 160.637 266.268 160.748C265.194 160.859 264.109 160.758 263.074 160.45C262.039 160.142 261.075 159.632 260.237 158.952C259.399 158.271 258.703 157.432 258.189 156.482C256.029 152.483 260.233 150.659 264.255 148.499C268.277 146.339 270.493 144.664 272.653 148.657Z" fill="#001833"/>
<path d="M290.747 145.499L282.349 113.953L280.356 106.488C278.484 108.495 276.293 110.177 273.871 111.467C265.081 116.198 238.579 114.313 234.907 95.729C231.912 80.5745 248.004 89.2855 256.244 88.3384C269.191 86.8453 278.173 79.2261 295.903 88.805C317.109 100.278 307.063 128.403 307.063 128.403C307.063 128.403 297.732 124.75 290.747 145.499Z" fill="#001833"/>
<path opacity="0.4" d="M273.322 176.531L284.553 175.509L274.298 185.517L273.322 176.531Z" fill="#0C092A"/>
<path d="M266.107 134.945C264.404 134.945 263.023 133.564 263.023 131.861C263.023 130.157 264.404 128.777 266.107 128.777C267.811 128.777 269.191 130.157 269.191 131.861C269.191 133.564 267.811 134.945 266.107 134.945Z" fill="#001833"/>
<path d="M247.71 134.945C246.007 134.945 244.626 133.564 244.626 131.861C244.626 130.157 246.007 128.777 247.71 128.777C249.414 128.777 250.794 130.157 250.794 131.861C250.794 133.564 249.414 134.945 247.71 134.945Z" fill="#001833"/>
<path d="M133.169 2.09473H-15.2097V122.653H133.169V2.09473Z" fill="#5348C7" fill-opacity="0.6"/>
<path d="M58.9797 104.893C65.1258 104.893 70.1082 100.784 70.1082 95.7145C70.1082 90.6454 65.1258 86.5361 58.9797 86.5361C52.8336 86.5361 47.8513 90.6454 47.8513 95.7145C47.8513 100.784 52.8336 104.893 58.9797 104.893Z" fill="white"/>
<path d="M55.6709 65.2378C57.5535 62.0226 59.7935 59.0258 62.349 56.3044C64.2253 54.3327 65.9092 52.189 67.3777 49.9023C68.4773 48.0276 69.034 45.8891 68.9871 43.7215C68.9871 40.4978 67.9275 37.887 65.8084 35.8892C63.6892 33.8914 60.8542 32.8908 57.3032 32.8868C50.5753 32.8868 45.4968 35.8478 42.0684 41.7691L33.0134 34.5157C35.4819 30.1932 39.0604 26.5937 43.3857 24.0839C47.624 21.6621 52.6085 20.4515 58.3399 20.4515C65.3193 20.4515 70.8805 22.3148 75.0237 26.042C79.1663 29.7692 81.2356 34.9056 81.2322 41.4513C81.2855 44.2619 80.8616 47.0611 79.9779 49.732C79.2545 51.8802 78.2328 53.9184 76.9424 55.7879C75.4853 57.759 73.9252 59.6536 72.2689 61.4635C70.27 63.5811 68.5002 65.9001 66.9882 68.3821C65.7895 70.57 65.1967 73.0332 65.27 75.522H53.38C53.38 71.3975 54.1434 67.9695 55.6709 65.2378Z" fill="white"/>
</g>
<defs>
<clipPath id="clip0_350_542">
<rect width="514" height="763" fill="white"/>
</clipPath>
</defs>
</svg>
